PathFileType	4	(X/Y/Z)	C:\Users\Biomechanik\SynologyDrive\AlexP\Athlete_03\Athlete_3_25_03_31\Deadlift_bw_01\marker_experimental.trc
DataRate	CameraRate	NumFrames	NumMarkers	Units	OrigDataRate	OrigDataStartFrame	OrigNumFrames
200.000000	200.000000	4	55	mm	200.000000	572	1527
Frame#	Time	BL			BR			GLAB			RFHD			LFHD			C7			T6			SPINMOL			SPINM2			SPINM3			T12			BELTOL			BELT2			BELT3			SACROL			SACR2			SACR3			LTHOL			LTH2			LTH3			LSHAOL			LSHA2			LSHA3			LHEE			LTOE			LM5			RTHOL			RTH2			RTH3			RSHAOL			RSHA2			RSHA3			RHEE			RTOE			RM5			STRN			XIPH			LACR			LUAOL			LUA2			LUA3			LLAOL			LLA2			LLA3			LWRR			LWRU			RACR			RUAOL			RUA2			RUA3			RLAOL			RLA2			RLA3			RWRR			RWRU			
		X1	Y1	Z1	X2	Y2	Z2	X3	Y3	Z3	X4	Y4	Z4	X5	Y5	Z5	X6	Y6	Z6	X7	Y7	Z7	X8	Y8	Z8	X9	Y9	Z9	X10	Y10	Z10	X11	Y11	Z11	X12	Y12	Z12	X13	Y13	Z13	X14	Y14	Z14	X15	Y15	Z15	X16	Y16	Z16	X17	Y17	Z17	X18	Y18	Z18	X19	Y19	Z19	X20	Y20	Z20	X21	Y21	Z21	X22	Y22	Z22	X23	Y23	Z23	X24	Y24	Z24	X25	Y25	Z25	X26	Y26	Z26	X27	Y27	Z27	X28	Y28	Z28	X29	Y29	Z29	X30	Y30	Z30	X31	Y31	Z31	X32	Y32	Z32	X33	Y33	Z33	X34	Y34	Z34	X35	Y35	Z35	X36	Y36	Z36	X37	Y37	Z37	X38	Y38	Z38	X39	Y39	Z39	X40	Y40	Z40	X41	Y41	Z41	X42	Y42	Z42	X43	Y43	Z43	X44	Y44	Z44	X45	Y45	Z45	X46	Y46	Z46	X47	Y47	Z47	X48	Y48	Z48	X49	Y49	Z49	X50	Y50	Z50	X51	Y51	Z51	X52	Y52	Z52	X53	Y53	Z53	X54	Y54	Z54	X55	Y55	Z55	

573	2.86	1214.245971679688	39.25999832153335	-2269.230712890625	1226.857788085938	29.84639739990236	-248.7784729003906	376.7798461914062	1619.04541015625	-1200.650390625	324.5902099609375	1639.806640625	-1137.401123046875	329.6912536621094	1636.7041015625	-1272.39306640625	157.0120697021484	1448.188354492188	-1205.340576171875	92.64894866943359	1288.180786132812	-1210.406616210938	85.46983337402344	1256.599365234375	-1233.080688476562	78.57704162597656	1247.436645507812	-1184.158447265625	76.14786529541016	1192.302612304688	-1220.296508789062	71.31424713134766	1135.998046875	-1218.791748046875	40.47328948974609	1117.599609375	-1234.379028320312	40.37839508056641	1114.186157226562	-1184.131591796875	19.62777519226074	1057.986206054688	-1214.25390625	3.178168058395386	974.3937377929689	-1238.098510742188	4.404998302459717	970.9948730468751	-1186.706665039062	-15.07235431671143	914.5270385742189	-1215.503540039062	113.8995132446289	678.6685180664064	-1402.642333984375	71.02371215820312	617.9218139648439	-1374.468627929688	118.8279724121094	618.7496948242189	-1390.12255859375	129.5686950683594	325.5845031738282	-1407.923461914062	84.32613372802734	260.840789794922	-1396.224609375	133.7602691650391	263.9182128906251	-1403.273315429688	74.95437622070312	67.62216949462899	-1322.070556640625	292.9283752441406	49.06312179565438	-1330.180297851562	243.5248260498047	29.81630706787118	-1430.572143554688	98.37104797363281	688.7285156250001	-1025.654052734375	161.31298828125	641.4235839843751	-1012.698425292969	116.4170684814453	629.7272949218751	-1030.802612304688	115.8257751464844	341.3758850097657	-1015.610290527344	151.6565704345703	271.3698120117188	-1013.270263671875	104.9026107788086	280.4819335937501	-1026.951782226562	75.43849945068359	61.54150772094734	-1113.646362304688	288.895263671875	48.41365814208991	-1103.097290039062	237.2014007568359	39.31446838378913	-1003.388427734375	324.6679077148438	1345.957885742188	-1207.540405273438	344.4013061523438	1204.062377929688	-1204.78369140625	249.3295135498047	1393.2431640625	-1382.826538085938	277.8821411132812	1237.445922851562	-1483.973876953125	276.3617248535156	1176.330078125	-1507.31103515625	307.7237548828125	1181.9384765625	-1466.710693359375	308.8229064941406	969.3581542968751	-1508.810180664062	263.7921142578125	908.0514526367189	-1531.061157226562	308.8993225097656	907.3750610351564	-1508.552978515625	314.4544067382812	798.9758300781251	-1503.505004882812	302.1587219238281	804.8964233398439	-1426.06640625	264.0353393554688	1396.450561523438	-1038.65625	280.6909484863281	1243.110595703125	-941.4730834960936	306.8627319335938	1182.37109375	-948.7088623046874	269.5444030761719	1183.75390625	-913.0529785156249	297.1516723632812	958.4129638671875	-917.4221801757811	349.8377685546875	901.1234130859376	-933.5646362304688	301.8314514160156	895.795654296875	-921.7860107421875	329.8019104003906	807.1616821289064	-938.35595703125	314.6724853515625	804.7683715820314	-1016.006896972656	
574	2.865	1214.246337890625	39.25994110107436	-2269.231689453125	1226.8583984375	29.84735107421876	-248.7794799804688	375.0117797851562	1620.017700195312	-1200.603759765625	322.8309326171875	1640.777221679688	-1137.342041015625	327.9199523925781	1637.670288085938	-1272.343017578125	155.4329986572266	1448.823486328125	-1205.217163085938	91.72721862792969	1288.241333007812	-1210.300537109375	84.72433471679688	1256.5439453125	-1232.96728515625	77.96063232421875	1247.369995117188	-1184.031860351562	75.92578125	1192.195678710938	-1220.147094726562	71.53667449951172	1135.815551757812	-1218.625854492188	40.87889099121094	1117.253051757812	-1234.183227539062	40.82377243041992	1113.827880859375	-1183.950317382812	20.40591430664062	1057.499755859375	-1214.070434570312	4.450466156005859	974.2886352539064	-1237.8974609375	5.708686351776123	970.8676147460939	-1186.516845703125	-13.80364894866943	914.4232177734376	-1215.321411132812	113.7585754394531	679.2874755859376	-1402.399169921875	70.49232482910156	618.9449462890626	-1373.927001953125	118.2300033569336	619.3490600585939	-1389.787719726562	128.1279144287109	325.6809387207032	-1407.383911132812	83.19739532470703	260.7584228515626	-1395.472534179688	132.5772552490234	264.018035888672	-1402.830810546875	74.95111846923828	67.6017379760743	-1321.997314453125	292.923095703125	49.07793807983406	-1330.225952148438	243.4925689697266	29.79936981201181	-1430.57666015625	98.27906799316406	689.4552001953126	-1025.577392578125	160.7802276611328	641.5621948242189	-1012.679077148438	115.7899627685547	630.3033447265626	-1030.817504882812	114.237922668457	341.4058227539063	-1015.950378417969	150.3242492675781	271.5439147949219	-1013.362060546875	103.6060104370117	280.4603881835938	-1027.299438476562	75.41281127929688	61.50009918212898	-1113.701782226562	288.8806457519531	48.43401336669929	-1103.06884765625	237.1885528564453	39.30749893188483	-1003.34912109375	323.4091491699219	1347.191284179688	-1207.564208984375	343.8677062988281	1205.486694335938	-1204.781860351562	247.7032928466797	1394.20751953125	-1382.825073242188	276.6776123046875	1238.502563476562	-1484.073974609375	275.3369140625	1177.35400390625	-1507.4677734375	306.7403869628906	1183.072875976562	-1466.844360351562	308.3555603027344	970.4829101562501	-1508.880493164062	263.4640808105469	909.0655517578126	-1531.10400390625	308.5885009765625	908.4997558593751	-1508.6142578125	314.3856811523438	800.1205444335939	-1503.552490234375	302.1983642578125	806.0277709960939	-1426.094970703125	262.7499084472656	1397.514892578125	-1038.556396484375	279.8038024902344	1244.272827148438	-941.0198364257811	306.0209045410156	1183.464477539062	-948.4688110351561	268.6302795410156	1184.813598632812	-912.8811035156249	296.7349548339844	959.4931640625	-917.2111206054686	349.4907531738281	902.2738647460939	-933.3771362304688	301.5075378417969	896.8853149414062	-921.6035766601562	329.6122436523438	808.3027343750001	-938.222900390625	314.4376525878906	805.9259033203126	-1015.863891601562	
575	2.87	1214.24658203125	39.25983810424819	-2269.232666015625	1226.859008789062	29.8484401702881	-248.7808074951172	373.2753601074219	1620.905517578125	-1200.559448242188	321.1072998046875	1641.667724609375	-1137.283935546875	326.1805725097656	1638.554931640625	-1272.293579101562	153.8757019042969	1449.38671875	-1205.089721679688	90.82186889648438	1288.2431640625	-1210.189331054688	83.99252319335938	1256.43505859375	-1232.848388671875	77.36019134521484	1247.252685546875	-1183.899047851562	75.7086181640625	1192.040771484375	-1219.993041992188	71.75316619873047	1135.5947265625	-1218.45263671875	41.27900695800781	1116.873779296875	-1233.975219726562	41.26868057250977	1113.436401367188	-1183.754760742188	21.17810440063477	1056.985473632812	-1213.8720703125	5.70536470413208	974.1696777343751	-1237.68994140625	6.999892711639404	970.7235107421876	-1186.320678710938	-12.56461906433105	914.3092651367189	-1215.133666992188	113.6322174072266	679.8800659179689	-1402.159912109375	69.99053955078125	619.9310913085939	-1373.400390625	117.6611175537109	619.9244384765626	-1389.458984375	126.7120208740234	325.773651123047	-1406.859375	82.08850860595703	260.679656982422	-1394.72412109375	131.4107971191406	264.1135253906251	-1402.407348632812	74.94626617431641	67.58081054687509	-1321.926879882812	292.9169616699219	49.09530258178719	-1330.279907226562	243.4553985595703	29.78252029418954	-1430.58935546875	98.20055389404297	690.1604003906251	-1025.4853515625	160.2586212158203	641.6862792968751	-1012.645751953125	115.1794967651367	630.8645629882814	-1030.820678710938	112.6311492919922	341.4320068359376	-1016.284423828125	148.9653930664062	271.7128601074219	-1013.434997558594	102.289176940918	280.4383850097657	-1027.6416015625	75.3822021484375	61.45562362670906	-1113.750244140625	288.8617248535156	48.45878982543952	-1103.036254882812	237.1747741699219	39.29488372802741	-1003.304260253906	322.1696472167969	1348.346069335938	-1207.58984375	343.347412109375	1206.834716796875	-1204.785278320312	246.092041015625	1395.0966796875	-1382.822998046875	275.4871215820312	1239.479858398438	-1484.16650390625	274.3268127441406	1178.300537109375	-1507.63134765625	305.7673034667969	1184.130126953125	-1466.969360351562	307.891357421875	971.5284423828126	-1508.936401367188	263.1382141113281	910.0022583007814	-1531.132690429688	308.2789611816406	909.5454101562501	-1508.66015625	314.3113098144531	801.1869506835939	-1503.583740234375	302.2407531738281	807.0833129882814	-1426.10693359375	261.4829711914062	1398.496215820312	-1038.455322265625	278.9338989257812	1245.342529296875	-940.5822143554686	305.1973266601562	1184.472534179688	-948.2411499023436	267.7379760742188	1185.786010742188	-912.7197265624999	296.3254699707031	960.489990234375	-917.0105590820311	349.1463928222656	903.3369750976564	-933.2026977539062	301.1863403320312	897.8912353515625	-921.4285278320312	329.4166564941406	809.3568115234376	-938.0899047851562	314.1884460449219	806.9892578125001	-1015.720581054688	
576	2.875	1214.246948242188	39.25978851318374	-2269.233642578125	1226.859741210938	29.84951972961427	-248.7823028564453	371.5709838867188	1621.711181640625	-1200.517578125	319.4195556640625	1642.479858398438	-1137.227294921875	324.4733276367188	1639.3603515625	-1272.244995117188	152.3416900634766	1449.880126953125	-1204.958374023438	89.93424224853516	1288.188720703125	-1210.07373046875	83.27556610107422	1256.275634765625	-1232.724487304688	76.77581024169922	1247.087280273438	-1183.76025390625	75.49574279785156	1191.840576171875	-1219.834716796875	71.96176147460938	1135.3388671875	-1218.2724609375	41.67067718505859	1116.4638671875	-1233.756103515625	41.70994186401367	1113.014770507812	-1183.546508789062	21.94154739379883	1056.446533203125	-1213.658813476562	6.941291809082031	974.0403442382814	-1237.474975585938	8.277304649353027	970.5664062500001	-1186.1171875	-11.36021709442139	914.1896972656251	-1214.9384765625	113.5266571044922	680.4445190429689	-1401.926147460938	69.52497863769531	620.8756713867189	-1372.895141601562	117.1292343139648	620.4741210937501	-1389.139770507812	125.3359603881836	325.862762451172	-1406.356323242188	81.01076507568359	260.6060791015626	-1393.99072265625	130.2733306884766	264.2047119140626	-1402.007690429688	74.94013214111328	67.55944824218759	-1321.860107421875	292.9099426269531	49.11503601074227	-1330.342163085938	243.4140930175781	29.76621055603036	-1430.611328125	98.14214324951172	690.8432617187501	-1025.375366210938	159.7573089599609	641.7969360351564	-1012.599182128906	114.5936508178711	631.4100952148439	-1030.80908203125	111.0146331787109	341.4545898437501	-1016.607849121094	147.5878448486328	271.8758239746094	-1013.487243652344	100.9592590332031	280.4160461425782	-1027.973510742188	75.34694671630859	61.40794754028327	-1113.78955078125	288.8385925292969	48.48801422119148	-1102.999145507812	237.1595764160156	39.27650451660163	-1003.25390625	320.9512023925781	1349.423095703125	-1207.617309570312	342.8405151367188	1208.106811523438	-1204.793579101562	244.4970550537109	1395.912353515625	-1382.820434570312	274.3110961914062	1240.379150390625	-1484.252319335938	273.3298950195312	1179.170532226562	-1507.802978515625	304.8045959472656	1185.111938476562	-1467.0869140625	307.4303283691406	972.4957885742189	-1508.977905273438	262.8142395019531	910.8627319335939	-1531.147216796875	307.9704284667969	910.5127563476564	-1508.690185546875	314.2301940917969	802.1755981445314	-1503.598022460938	302.2844543457031	808.0643920898439	-1426.101440429688	260.2343139648438	1399.396606445312	-1038.351806640625	278.0798034667969	1246.319458007812	-940.1663208007811	304.3926086425781	1185.397338867188	-948.0245361328124	266.8678894042969	1186.672729492188	-912.5681152343749	295.9244079589844	961.404541015625	-916.8212280273436	348.806884765625	904.3147583007814	-933.0430297851562	300.8691711425781	898.8145141601562	-921.2612915039062	329.2162780761719	810.3246459960939	-937.9583740234375	313.9249572753906	807.9600219726564	-1015.577880859375	
